<svg xmlns="http://www.w3.org/2000/svg" width="35.004" height="20.676" viewBox="0 0 35.004 20.676">
  <g id="arrow_down_primary" transform="translate(0 -100.698)" opacity="1">
    <g id="Group_1" data-name="Group 1" transform="translate(0 100.698)">
      <path id="Path_22" data-name="Path 22" d="M34.445,102.426,33.3,101.271a1.919,1.919,0,0,0-2.708,0l-13.08,13.08L4.415,101.257a1.92,1.92,0,0,0-2.708,0L.56,102.4a1.917,1.917,0,0,0,0,2.708l15.591,15.647a1.957,1.957,0,0,0,1.358.614h.006a1.957,1.957,0,0,0,1.354-.614l15.576-15.6a1.934,1.934,0,0,0,.56-1.368A1.915,1.915,0,0,0,34.445,102.426Z" transform="translate(0 -100.698)" fill="#748945"/>
    </g>
  </g>
</svg>
