<svg xmlns="http://www.w3.org/2000/svg" width="21.13" height="21.13" viewBox="0 0 21.13 21.13">
  <path id="globe" d="M10.565,0A10.565,10.565,0,1,0,21.13,10.565,10.577,10.577,0,0,0,10.565,0ZM9.946,5.186A14.444,14.444,0,0,1,7.182,4.8c.142-.337.3-.66.463-.967a5.346,5.346,0,0,1,2.3-2.46Zm0,1.239V9.946H6.079a15.558,15.558,0,0,1,.676-3.98A15.675,15.675,0,0,0,9.946,6.425Zm0,4.759v3.521a15.675,15.675,0,0,0-3.19.458,15.558,15.558,0,0,1-.676-3.98Zm0,4.76v3.815a5.346,5.346,0,0,1-2.3-2.46c-.166-.307-.321-.63-.463-.967a14.442,14.442,0,0,1,2.764-.388Zm1.238,0a14.444,14.444,0,0,1,2.764.388c-.142.337-.3.66-.463.967a5.346,5.346,0,0,1-2.3,2.46Zm0-1.239V11.184h3.867a15.558,15.558,0,0,1-.676,3.98A15.675,15.675,0,0,0,11.184,14.705Zm0-4.759V6.425a15.675,15.675,0,0,0,3.19-.458,15.558,15.558,0,0,1,.676,3.98Zm0-4.76V1.371a5.346,5.346,0,0,1,2.3,2.46c.166.307.321.63.463.967a14.444,14.444,0,0,1-2.764.388Zm3.39-1.946a9.4,9.4,0,0,0-1-1.5,9.338,9.338,0,0,1,3.3,1.966,11.7,11.7,0,0,1-1.727.747A12.543,12.543,0,0,0,14.574,3.24Zm-8.017,0a12.543,12.543,0,0,0-.573,1.209A11.715,11.715,0,0,1,4.256,3.7a9.338,9.338,0,0,1,3.3-1.966,9.4,9.4,0,0,0-1,1.5ZM5.564,5.613A16.579,16.579,0,0,0,4.84,9.946H1.259A9.283,9.283,0,0,1,3.376,4.629a12.734,12.734,0,0,0,2.188.984ZM4.84,11.184a16.577,16.577,0,0,0,.724,4.333,12.734,12.734,0,0,0-2.188.984,9.283,9.283,0,0,1-2.117-5.317Zm1.143,5.5a12.543,12.543,0,0,0,.573,1.209,9.409,9.409,0,0,0,1,1.5,9.336,9.336,0,0,1-3.3-1.966,11.7,11.7,0,0,1,1.727-.747Zm8.59,1.209a12.543,12.543,0,0,0,.573-1.209,11.715,11.715,0,0,1,1.727.747,9.338,9.338,0,0,1-3.3,1.966A9.4,9.4,0,0,0,14.574,17.89Zm.992-2.373a16.578,16.578,0,0,0,.724-4.333h3.581A9.283,9.283,0,0,1,17.754,16.5a12.734,12.734,0,0,0-2.188-.984Zm.724-5.571a16.577,16.577,0,0,0-.724-4.333,12.734,12.734,0,0,0,2.188-.984,9.283,9.283,0,0,1,2.117,5.317Zm0,0" fill="#94a470"/>
</svg>
