<svg id="Capa_1" enable-background="new 0 0 512 512" height="512" viewBox="0 0 512 512" width="512" xmlns="http://www.w3.org/2000/svg"><g><path d="m256 148.17c7.074 0 12.809-5.735 12.809-12.81s-5.735-12.809-12.809-12.809-12.809 5.735-12.809 12.809 5.735 12.81 12.809 12.81z"/><path d="m95.656 148.17c7.074 0 12.809-5.735 12.809-12.81s-5.735-12.809-12.809-12.809-12.809 5.735-12.809 12.809 5.735 12.81 12.809 12.81z"/><path d="m416.344 122.552c-7.074 0-12.809 5.735-12.809 12.809s5.735 12.81 12.809 12.81 12.809-5.735 12.809-12.81-5.735-12.809-12.809-12.809z"/><path d="m256 378.529c-7.074 0-12.809 5.735-12.809 12.81 0 7.074 5.735 12.809 12.809 12.809s12.809-5.735 12.809-12.809c0-7.075-5.735-12.81-12.809-12.81z"/><path d="m95.656 404.148c7.074 0 12.809-5.735 12.809-12.809 0-7.075-5.735-12.81-12.809-12.81s-12.809 5.735-12.809 12.81c0 7.074 5.735 12.809 12.809 12.809z"/><path d="m416.344 378.529c-7.074 0-12.809 5.735-12.809 12.81 0 7.074 5.735 12.809 12.809 12.809s12.809-5.735 12.809-12.809c0-7.075-5.735-12.81-12.809-12.81z"/><path d="m128.737 263.341v-19.897c0-4.142-3.358-7.5-7.5-7.5s-7.5 3.358-7.5 7.5v19.897c0 4.142 3.358 7.5 7.5 7.5s7.5-3.358 7.5-7.5z"/><path d="m383.263 243.444v19.897c0 4.142 3.358 7.5 7.5 7.5s7.5-3.358 7.5-7.5v-19.897c0-4.142-3.358-7.5-7.5-7.5s-7.5 3.358-7.5 7.5z"/><path d="m283.1 257.959c-3.123-2.722-7.861-2.396-10.582.727-4.169 4.785-10.19 7.528-16.518 7.528s-12.349-2.744-16.518-7.528c-2.721-3.123-7.458-3.448-10.582-.727-3.123 2.721-3.448 7.459-.727 10.582 7.019 8.054 17.162 12.673 27.827 12.673s20.808-4.619 27.827-12.673c2.721-3.123 2.396-7.861-.727-10.582z"/><path d="m144.872 450.037c0 8.901-7.241 16.142-16.142 16.142h-66.147c-8.901 0-16.142-7.241-16.142-16.142v-205.483c0-4.142-3.358-7.5-7.5-7.5s-7.5 3.358-7.5 7.5v98.992c-17.418.477-31.441 14.783-31.441 32.313v30.959c0 17.53 14.023 31.836 31.44 32.313v10.905c0 17.172 13.97 31.142 31.142 31.142h66.147c17.172 0 31.142-13.97 31.142-31.142v-10.882h31.912v10.882c0 17.172 13.97 31.142 31.142 31.142h66.147c17.172 0 31.142-13.97 31.142-31.142v-10.882h31.913v10.882c0 17.172 13.97 31.142 31.142 31.142h66.148c17.171 0 31.142-13.97 31.142-31.142v-10.905c17.417-.478 31.44-14.784 31.44-32.313v-30.959c0-17.53-14.023-31.836-31.44-32.313v-27.188c0-4.142-3.358-7.5-7.5-7.5s-7.5 3.358-7.5 7.5v133.68c0 8.901-7.241 16.142-16.142 16.142h-66.147c-8.9 0-16.142-7.241-16.142-16.142v-354.994c0-4.807 1.872-9.325 5.27-12.723l31.222-31.222c7.033-7.033 18.413-7.033 25.447 0l31.222 31.222c3.398 3.399 5.27 7.917 5.27 12.723v191.313c0 4.142 3.358 7.5 7.5 7.5s7.5-3.358 7.5-7.5v-103.203c17.417-.478 31.44-14.784 31.44-32.313v-30.959c0-17.818-14.487-32.316-32.301-32.336-1.376-5.947-4.38-11.407-8.803-15.831l-31.222-31.222c-12.894-12.895-33.764-12.896-46.66 0l-31.222 31.222c-4.423 4.423-7.427 9.883-8.803 15.83h-33.634c-1.376-5.946-4.38-11.406-8.803-15.83l-31.221-31.222c-12.894-12.894-33.764-12.895-46.66 0l-31.222 31.222c-4.423 4.423-7.427 9.883-8.803 15.83h-33.633c-1.376-5.946-4.38-11.407-8.803-15.83l-31.222-31.222c-12.894-12.895-33.764-12.896-46.66 0l-31.223 31.221c-4.424 4.423-7.428 9.884-8.804 15.831-17.813.02-32.3 14.518-32.3 32.336v30.959c0 17.53 14.023 31.836 31.44 32.313v31.399c0 4.142 3.358 7.5 7.5 7.5s7.5-3.358 7.5-7.5v-119.508c0-4.806 1.872-9.324 5.271-12.723l31.222-31.222c7.033-7.033 18.413-7.033 25.447 0l31.222 31.222c3.398 3.399 5.27 7.917 5.27 12.723zm-129.872-299.196v-30.959c0-9.259 7.296-16.846 16.44-17.314v65.587c-9.144-.468-16.44-8.055-16.44-17.314zm0 255.977v-30.959c0-9.259 7.296-16.846 16.44-17.313v65.586c-9.144-.468-16.44-8.055-16.44-17.314zm482-30.959v30.959c0 9.259-7.296 16.846-16.44 17.313v-65.586c9.144.468 16.44 8.055 16.44 17.314zm-176.784-192.682h31.913v160.345h-31.913zm31.912-15h-31.913v-65.633h31.913zm-192.256 15h31.912v160.345h-31.912zm31.912-15h-31.912v-65.633h31.912zm-31.912 255.978v-65.632h31.912v65.632zm145.344 25.882c0 8.901-7.241 16.142-16.142 16.142h-66.147c-8.901 0-16.142-7.241-16.142-16.142v-18.382-80.632-175.346-80.633c0-4.806 1.872-9.324 5.27-12.723l31.222-31.222c7.032-7.032 18.414-7.033 25.447 0l31.223 31.222c3.398 3.399 5.27 7.917 5.27 12.723v80.633 175.345 80.632 18.383zm15-25.882v-65.632h31.913v65.632zm176.784-273.314c0 9.259-7.296 16.846-16.44 17.313v-65.587c9.145.468 16.44 8.055 16.44 17.314z"/></g></svg>