<svg id="phone" xmlns="http://www.w3.org/2000/svg" width="22" height="22" viewBox="0 0 22 22">
  <g id="Group_4" data-name="Group 4">
    <path id="Path_25" data-name="Path 25" d="M20.235,14.441a12.491,12.491,0,0,1-3.923-.625,1.793,1.793,0,0,0-1.744.368l-2.474,1.867A13.671,13.671,0,0,1,5.948,9.906L7.761,7.5a1.778,1.778,0,0,0,.437-1.8,12.51,12.51,0,0,1-.627-3.929A1.767,1.767,0,0,0,5.806,0H1.765A1.767,1.767,0,0,0,0,1.765,20.258,20.258,0,0,0,20.235,22,1.767,1.767,0,0,0,22,20.235V16.206A1.767,1.767,0,0,0,20.235,14.441Z" fill="#94a470"/>
  </g>
</svg>
