<svg xmlns="http://www.w3.org/2000/svg" width="206.688" height="165.557" viewBox="0 0 206.688 165.557">
  <g id="koyce_logo_primary" transform="translate(-71.059 305.564)">
    <path id="Path_11" data-name="Path 11" d="M109.652-304.88a8.877,8.877,0,0,1-2.339,4.993c-.742.72-.855.742-2.609.742-3.1.023-8.524.7-9.244,1.147a3.264,3.264,0,0,1-1.012.292,22.9,22.9,0,0,0-4.723,1.8c-.315.18-.9.495-1.327.742a7.238,7.238,0,0,0-1.012.585,74.925,74.925,0,0,0-9.783,8.3c-3.036,2.946-4.948,4.521-5.982,4.9-.315.113-.562.36-.562.562,0,.337.292.427,1.889.652,1.1.158,1.934.7,1.934,1.282a4.331,4.331,0,0,1-.36,1.282,4.8,4.8,0,0,0-.2,2.429,5.582,5.582,0,0,1-.225,2.676,4.017,4.017,0,0,0-.225,1.642l.135.562.63-.607a2.335,2.335,0,0,1,.855-.585,6.922,6.922,0,0,1,2.654,1.349c.562.607.9.562,2.182-.247,1.012-.652,1.125-.675,1.619-.36a10.9,10.9,0,0,1,1.687,2.721c1.349,2.721,2.452,3.936,4.521,5.016,1.642.877,2.654.945,3.306.225.81-.877.99-1.484,1.125-3.6a10.4,10.4,0,0,1,.292-2.294c.112-.135.787-1.439,1.552-2.946a26.684,26.684,0,0,1,1.844-3.261c.247-.292.585-.7.742-.877a3.427,3.427,0,0,1,.832-.72c.517-.337.652-.337,1.035-.067.36.247.495.652.562,1.777.09,1.664.495,2.271,1.6,2.519a4.488,4.488,0,0,1,2.362,1.439,19.679,19.679,0,0,1,2.294,4.476,2.747,2.747,0,0,0,.562,1.012,2.725,2.725,0,0,1,.562,1.08c0,.472-1.439,2.092-2.429,2.676a10.23,10.23,0,0,0-1.259.922,1.9,1.9,0,0,1-.562.4,2.979,2.979,0,0,0-.675.787c-.472.7-.517.967-.427,2.429a8.069,8.069,0,0,0,.36,2.069,41.148,41.148,0,0,1,2.744,6.41,7.867,7.867,0,0,0,2.137,4.071,14.622,14.622,0,0,1,1.507,1.912,7.013,7.013,0,0,0,.945,1.192,1.27,1.27,0,0,1,.36.9c0,.517-.2.7-1.372,1.237a2.913,2.913,0,0,1-2.474.382,12.713,12.713,0,0,0-2.227-.247h-1.125v.787a7.066,7.066,0,0,0,1.979,3.981,5.411,5.411,0,0,0,1.439.472,4.552,4.552,0,0,1,1.934,1.034c1.192,1.012,2,1.17,3.1.585a5.3,5.3,0,0,1,1.912-.338c1.394,0,1.709.225,2.991,2.182l.7,1.08,1.574.135c1.574.135,2.586.54,5.06,2.114,1.1.7,1.125.7,1.125.022a3.143,3.143,0,0,1,.742-1.979,5.065,5.065,0,0,1,3.036.135,5.311,5.311,0,0,1,1.147.9c.72.765.922.742,1.574-.2.652-.967,1.327-1.17,2.227-.7a5.813,5.813,0,0,0,3.868.022c1.26-.45,2.789-.427,3.149.022.247.27.247.585,0,1.732-.472,2.317-.517,3.059-.2,3.778.36.9,1.664,1.462,3.778,1.687,1.8.157,1.754.2,1.867-2.047.068-.945.135-1.125.495-1.125s.495.247.675,1.237c.247,1.192.27,1.237,1.259,1.529a11.625,11.625,0,0,0,3.8.157l2.766-.135,1.057,1.124c1.17,1.3,1.619,1.395,3.441.742a6.4,6.4,0,0,0,3.419-3.531c.922-1.844,1.619-2.024,7.894-2.024,4.3,0,5.038.045,5.668.4a2.435,2.435,0,0,1,.99.9c.787,1.529,1.709,1.822,3.688,1.17a2.363,2.363,0,0,1,2.024-.022,14.285,14.285,0,0,1,1.394.562c.225.113.832.383,1.372.607a3.957,3.957,0,0,1,1.462,1.057c1.462,1.911,1.507,1.957,2.5,1.957a1.941,1.941,0,0,0,1.732-.81,6.772,6.772,0,0,1,1.664-1.259,1.608,1.608,0,0,1,1.687-.18,4.706,4.706,0,0,1,1.125.562,7.59,7.59,0,0,0,1.1.675l.787.4.63-.765c1.529-1.822,1.664-1.867,3.441-.99a9.318,9.318,0,0,0,1.327.562,3.693,3.693,0,0,1,.967.585,4.125,4.125,0,0,0,1.507.7c.652.09.832.022,1.259-.562a4.064,4.064,0,0,1,1.327-1.034c.742-.337.945-.36,2.114-.045a8.021,8.021,0,0,0,4.206-.112,13.813,13.813,0,0,1,1.687-.427,33.572,33.572,0,0,0,4.5-1.1,7.145,7.145,0,0,1,4.521.09,3.539,3.539,0,0,0,1.889.45c1.147,0,1.349-.09,2.631-1.08,1.484-1.125,1.934-1.26,2.7-.72.382.27,1.349.337,4.723.36l4.228.022,1.079.652a6.682,6.682,0,0,0,1.237.652,3.623,3.623,0,0,1,.832.36,11.761,11.761,0,0,0,5.06.382,1.589,1.589,0,0,0,1.125-.855,10.178,10.178,0,0,1,.72-1.215l.382-.562,1.8.63c1.777.63,1.822.63,2.991.247a12.55,12.55,0,0,0,2.879-1.237,23.267,23.267,0,0,1,3.329-2.069c.585-.315,1.439-.787,1.867-1.035a6.856,6.856,0,0,1,4.521-.922,28.729,28.729,0,0,1,4.408,1.237c1.484.63,2.586.247,3.553-1.3.967-1.529.652-4.813-.562-5.735a3.072,3.072,0,0,0-1.439-.292c-1.844,0-2.631-1.282-1.867-3.036a1.3,1.3,0,0,0-.112-1.462,6.115,6.115,0,0,0-.832-1.26c-.855-.9-1.1-1.754-1.214-4.026a6.252,6.252,0,0,0-.7-3.329,10.044,10.044,0,0,1-.855-2.024c-.135-.517-.382-1.507-.562-2.181-.945-3.8-2.384-7.647-3.171-8.479a3.965,3.965,0,0,1-.382-1.462,41.215,41.215,0,0,0-.832-6.275,3.627,3.627,0,0,1,.4-3.194c2.092-3.329,2.384-5.128,1.147-7.174a13.069,13.069,0,0,0-1.394-1.934,1.836,1.836,0,0,0-1.8-.72,4.286,4.286,0,0,1-1.709-.315c-.315-.157-.99-.517-1.484-.787a7.928,7.928,0,0,0-2.137-.675c-1.192-.2-2.227-.967-2.227-1.709a2.817,2.817,0,0,0-.877-1.057c-1.1-.945-1.259-1.462-.9-3.194.337-1.754.045-2.519-1.237-3.149-.81-.4-1.035-.4-2.474-.157a5.448,5.448,0,0,0-1.934.585,2.718,2.718,0,0,1-1.552.337c-1.439,0-1.439.337,0,1.08a4.88,4.88,0,0,1,1.147.787c.247.382-.022,1.08-.63,1.754-.562.585-.7,1.3-.337,1.687a2.107,2.107,0,0,1,.292.945c.067.787.045.765,2.2,1.822,1.574.765,1.912,1.394,1.889,3.4a6.921,6.921,0,0,1-.292,2.182c-.292.585-.337,3.576-.045,3.778a4.966,4.966,0,0,1,1.035,2.114,4.368,4.368,0,0,0,1.1,1.619c1.642,1.709,1.619,2.451-.135,3.441a13.069,13.069,0,0,0-2.384,1.867l-1.214,1.192-3.868-.022c-5.533-.023-18.42-.652-22.288-1.1-1.844-.2-4.071-.4-9.356-.877-1.057-.113-2.564-.292-3.374-.427-1.349-.247-2.654-.427-6.612-.967a17.915,17.915,0,0,1-2.227-.427,4.565,4.565,0,0,0-1.327-.225,9.693,9.693,0,0,1-1.934-.315c-1.732-.45-3.306-.787-4.588-1.034a17.9,17.9,0,0,1-1.8-.427c-.382-.112-1.3-.36-2.024-.562a23.859,23.859,0,0,1-4.138-1.327c-.292-.225-.2-1.012.18-1.844.292-.585.18-2.811-.135-2.856-.112-.022-.382.54-.562,1.26a5.979,5.979,0,0,1-1.1,2.2l-.765.922L180.048-272c-4-.2-5.645-.765-7.13-2.339a5.7,5.7,0,0,1-1.664-2.721c-.247-1.147.112-1.395,2.069-1.395a4.839,4.839,0,0,0,3.958-1.484c.787-.787,1.17-1.439.832-1.439a.222.222,0,0,0-.225.18c0,.315-1.552.945-2.384.945a4.629,4.629,0,0,1-2.811-1.259,5.238,5.238,0,0,1-1.1-2.451,1.862,1.862,0,0,1,.427-1.035c.337-.427.675-.54,1.889-.607,1.867-.113,2.272-.495,2.249-2.069a5.221,5.221,0,0,0-.4-1.957c-.2-.472-.495-1.169-.675-1.529-.675-1.574-.877-1.912-1.057-1.912-.292,0-.2,1.484.135,2.294,1.012,2.384.99,3.553-.09,4.116-1.687.877-3.643.225-4.858-1.6a11.005,11.005,0,0,0-8.816-4.588,3.217,3.217,0,0,1-1.664-.292,11.544,11.544,0,0,0-2.766-1.6c-3.846-1.844-4.611-2-9.334-2-3.666,0-5.443.225-7.084.945a7.879,7.879,0,0,1-2.541.922.981.981,0,0,0-.607.2c-.247.225-2.047.54-5.645.967a16.963,16.963,0,0,1-4.273,0,23.6,23.6,0,0,1-4.813-.9c-.315-.113-1.169-.383-1.912-.607a21.027,21.027,0,0,1-2.024-.675c-.945-.4-4.228-1.529-5.848-2-2.2-.652-2.429-.765-2.249-1.214a14.543,14.543,0,0,0,.36-6.117C109.832-305.735,109.81-305.712,109.652-304.88Zm53.887,16.89a5.709,5.709,0,0,1,.9,1.439,17.25,17.25,0,0,1,.427,6.972c-.157.675-.36,1.732-.472,2.361a2.6,2.6,0,0,1-.607,1.395c-.495.382-2,.382-2.249,0a40.437,40.437,0,0,1-.18-4.993c0-4.071-.045-4.813-.382-5.443-.472-.855-.517-1.664-.112-2.069C161.246-288.732,162.955-288.507,163.54-287.99Zm-66.684,9.356c.7.652.652.855-.315,2-1.6,1.867-2.991,4.206-2.991,5.015a1.333,1.333,0,0,1-.99,1.035c-.517,0-1.237-.81-1.732-1.912a4.37,4.37,0,0,1-.315-2.766c.18-1.934.63-3.081,1.327-3.329a7.839,7.839,0,0,1,3.036-.517C96.091-279.129,96.428-279.039,96.855-278.634Zm67.292,4.183c.742.562,1.012,1.034.855,1.484-.135.315-.45.36-2.114.315-2.137-.068-2.317-.2-2-1.44C161.156-275.125,162.977-275.328,164.147-274.451Zm.4,4.228a12.757,12.757,0,0,1,5.06,4.093,4.723,4.723,0,0,0,1.3,1.282c.765.472,1.125.54,4.116.607,2.834.067,3.329.135,3.733.495.652.585.81.337.337-.562a2.836,2.836,0,0,0-2.114-1.687,3.546,3.546,0,0,1-2.541-1.372c-.225-.495-.18-.63.27-.99.36-.292.63-.36.9-.2a6.1,6.1,0,0,0,3.936.112c1.3-.427,2-.382,3.958.225,2.631.787,5.488,1.484,7.849,1.934a6.678,6.678,0,0,1,1.394.337c.225.135,3.621.7,5.892.99a16.8,16.8,0,0,1,2.249.427,26.281,26.281,0,0,0,3.081.472c1.3.135,3.621.382,5.173.562s4.386.427,6.3.562,4.026.337,4.7.45c.675.135,4.79.225,9.131.225,4.363,0,10.053.067,12.662.157,5.623.157,5.578.112,3.351,2.5-.765.832-2.114,2.362-2.991,3.419-3.6,4.341-4.656,6.027-5.4,8.636-.427,1.439-1.259,2.609-1.867,2.609a1.808,1.808,0,0,1-.832-.337c-.9-.607-6.815-3.486-14.012-6.792-1.372-.63-2.092-1.349-1.889-1.867a12.6,12.6,0,0,0,.337-1.349,5.451,5.451,0,0,1,.4-1.237,4.523,4.523,0,0,0,.247-2.069c-.023-.337-.135-.472-.36-.382a4.17,4.17,0,0,0-1.237,1.934,3.605,3.605,0,0,1-.315.922,7.051,7.051,0,0,0-.45,1.529c-.225,1.3-.54,1.417-2.2.855a32.27,32.27,0,0,0-7.962-1.395,12.326,12.326,0,0,1-3.553-.585c-.247-.225-.36-.675-.36-1.642,0-1.124-.09-1.417-.54-1.822-.9-.832-4.408-1.732-5.06-1.3-.247.157-.292.585-.157,2.024l.135,1.822-.607.135a6.761,6.761,0,0,1-2.294-.225c-.945-.225-1.934-.45-2.227-.495-.337-.067-.652-.382-.877-.945a6.043,6.043,0,0,0-1.889-2.541c-.585-.315-1.327.292-1.327,1.08a1.758,1.758,0,0,1-.472.989c-.45.45-.63.472-3.081.315a34.187,34.187,0,0,1-3.846-.382c-4.048-.72-5.353-.922-7.782-1.192-3.6-.427-5.443-.742-5.96-1.012a2.205,2.205,0,0,0-.787-.225,10.327,10.327,0,0,1-2.946-1.147,8.645,8.645,0,0,1-3.486-3.216,3.893,3.893,0,0,1,1.417-5.15C161.943-271.077,162.865-270.965,164.552-270.222Zm-40.078,6.14c1.889.472,2.406.495,7.647.382,3.1-.045,7.04-.2,8.771-.337,4.071-.315,5.96-.382,6.545-.18a3.771,3.771,0,0,1,1.439,2.362.846.846,0,0,0,.2.607,1.774,1.774,0,0,1,.382.855,8.261,8.261,0,0,0,.427,1.394c.157.36.472,1.125.675,1.687a13.219,13.219,0,0,0,.607,1.439c1.147,2.2,1.462,6.3.585,7.759a5.333,5.333,0,0,1-.652.922,10.967,10.967,0,0,0-.877,3.261c0,.832-.72,1.934-2.159,3.284a5.426,5.426,0,0,0-1.327,1.777,1.1,1.1,0,0,1-.427.742c-.562.225-20.939-.315-21.209-.562-.36-.293-.36-1.282-.068-2.879a5.524,5.524,0,0,0-.472-3.486,1.526,1.526,0,0,1-.2-.855c0-.495-.36-.989-1.642-2.249-1.732-1.687-2.631-3.126-2.631-4.161a24.483,24.483,0,0,0-.9-4.206c-.09-.248-.517-1.215-.945-2.137-1.507-3.238-1.574-3.509-.877-4.633C118.244-264.735,120.65-265,124.474-264.082Zm127.139.832c.855.585.63,1.259-.832,2.519-.72.63-2.429,2.271-3.8,3.643a22.632,22.632,0,0,1-2.744,2.474c-.495,0,.45-2.654,1.237-3.509a8.356,8.356,0,0,0,.562-.787c.967-1.462,4.251-4.7,4.79-4.7A1.8,1.8,0,0,1,251.613-263.25Zm3.081,3.194a3.157,3.157,0,0,1-.562,1.957,6.542,6.542,0,0,0-.675,2.024,6.11,6.11,0,0,1-.382,1.574,18.026,18.026,0,0,0-.54,3.6c-.562,8.187-.607,8.479-1.529,10.008-.135.18-.54,1.035-.945,1.867a3.919,3.919,0,0,1-2.991,2.654,3.464,3.464,0,0,0-1.192.562c-.225.225-.855.315-2.069.315-2.384,0-2.541-.2-1.619-2.092a8.39,8.39,0,0,0,.7-1.777c0-.225-.585-.652-1.507-1.1-1.979-.922-2.316-1.237-2.316-2.092,0-1.844,5.713-9.378,11.9-15.721,1.867-1.867,2.519-2.407,2.991-2.407S254.581-260.551,254.694-260.057Zm-54.967.495a3.193,3.193,0,0,1,1.327.81c.7.63.9.99.9,1.552s-.112.765-.495.877a6.547,6.547,0,0,1-2.969-.09c-.54-.2-.585-.315-.585-1.552,0-1.394.36-1.957,1.08-1.709A2.457,2.457,0,0,0,199.727-259.562Zm-31.667.27a23.413,23.413,0,0,0,4.768,1.1,14.037,14.037,0,0,1,1.912.4,9.18,9.18,0,0,0,1.687.337,12.645,12.645,0,0,1,1.8.36c.36.113,1.282.315,2.024.45s2.2.382,3.261.585,2.227.4,2.631.472c1.012.158,1.125.4,1.867,3.329a4.537,4.537,0,0,0,.54,1.35c.292.4.36.4.652.112a6.874,6.874,0,0,0,.81-1.574,9.509,9.509,0,0,1,.945-1.777c.427-.54.472-.54,3.194-.382,2.024.113,2.811.225,2.991.472.27.36.247.855-.157,4.386-.112,1.057-.2,2.429-.2,3.081,0,1.035-.067,1.214-.652,1.619a2.557,2.557,0,0,1-.855.472c-.382,0-1.484,1.012-2.047,1.912-.517.81-.585,1.125-.63,3.329a13.386,13.386,0,0,1-.135,2.519c-.225.225-22.558-.382-22.828-.607-.495-.4-.315-1.192.382-1.867.607-.585.675-.787.675-2.047a4.582,4.582,0,0,1,.562-2.474c.877-1.642.7-3.036-.63-5.038-2.182-3.284-3.756-6.117-4.026-7.309-.472-1.957-.472-2.879-.045-3.194A1.211,1.211,0,0,1,168.06-259.292Zm-55.282,1.8a18.672,18.672,0,0,1,1.507,2.631c2.294,4.88,3.261,6.725,4.3,8.187.54.81.607,1.1.607,2.744,0,1.822,0,1.822-1.215,3.734l-1.192,1.889-1.507.068c-1.237.045-1.6-.023-2.092-.4a2.132,2.132,0,0,0-.877-.45,1.085,1.085,0,0,1-.63-.495c-.292-.427-.292-.562,0-1.282.427-.967.54-6.117.157-6.59a2.453,2.453,0,0,1-.36-.877c-.225-.922-2.9-3.306-3.913-3.486-1.214-.225-1.529-.427-1.957-1.3a3.853,3.853,0,0,1,.18-3.666c.517-.585.675-.63,2.2-.63a3.759,3.759,0,0,0,2.2-.4A1.816,1.816,0,0,1,112.779-257.493Zm48.04,1.372a8.258,8.258,0,0,1,2.249,3.981,18.3,18.3,0,0,0,1.417,4.768,3.37,3.37,0,0,1,.27,3.216,10.192,10.192,0,0,0-.765,4.746l.067,1.777-3.823.067c-2.092.045-4.138,0-4.543-.067l-.72-.135.045-2.519a24.332,24.332,0,0,0-.27-4.138,7.325,7.325,0,0,1-.157-2.159,6.983,6.983,0,0,1,1.349-1.867,10.973,10.973,0,0,0,2.856-5.6C159.267-256.841,159.469-257.043,160.818-256.121Zm100.15.135a2.94,2.94,0,0,1,.517,1.282c.09.63.675,1.6,1.979,3.351,1.754,2.316,2.811,4.183,2.811,4.9a6.983,6.983,0,0,0,.7,1.619,9.069,9.069,0,0,0,1.462,2.2c.652.742.787,3.531.247,4.611-.18.337-.54,1.08-.787,1.642l-.472,1.057-6.7-.112c-6.5-.113-6.725-.135-7.085-.607a1.33,1.33,0,0,1-.2-1.6,7.323,7.323,0,0,0,.292-2.137,4.977,4.977,0,0,1,.99-3.374c1.282-2.047,1.507-2.879,1.327-4.723a4.764,4.764,0,0,1,1.507-4.273,6.009,6.009,0,0,0,1.529-2.834c0-.36.967-1.44,1.3-1.44A1.162,1.162,0,0,1,260.969-255.986Zm-59.015,1.777.787.382v1.889c0,2.024.068,1.934-1.462,2.564-1.484.63-2.474.922-2.609.787a19.064,19.064,0,0,1-.067-4.836,2.834,2.834,0,0,1,2.114-1.169A3.94,3.94,0,0,1,201.953-254.209Zm4.723,1.529c1.17.2,2.654.427,3.306.54a21.486,21.486,0,0,1,4.228,1.214l1.349.495-.023.99a8.637,8.637,0,0,1-.99,3.418,1.738,1.738,0,0,0-.225.765,3.3,3.3,0,0,1-.315,1.057c-.18.4-.675,1.822-1.147,3.193-.45,1.35-.9,2.654-1.012,2.856-.382.675-.247.855.63.855,1.057,0,1.012.09,2.5-4.5.63-1.912,1.237-3.643,1.349-3.846a4.451,4.451,0,0,0,.36-1.192,2.056,2.056,0,0,1,.36-.945.636.636,0,0,0,.2-.495c.023-1.327.81-1.169,2.9.562,2.879,2.407,4.3,3.936,4.3,4.633a3.765,3.765,0,0,1-1.17,2.137.292.292,0,0,0-.18.27,23.694,23.694,0,0,1-1.6,2.609l-1.619,2.407-4.521-.158c-7.04-.247-10.436-.45-10.616-.652-.09-.09-.045-.495.09-.9a8.372,8.372,0,0,0-.022-4.228c-.157-.292-.472-.832-.7-1.169l-.427-.63.72-.72c.967-1.012.945-1.934-.045-2.407l-.72-.337-.067-2.789c-.067-2.721.09-3.4.72-3.4C204.427-253.039,205.507-252.882,206.676-252.68Zm-4.161,5.713v1.687l-1.012.067a5.95,5.95,0,0,1-1.912-.225c-.81-.27-.9-.36-.9-1.08,0-.7.135-.877,1.125-1.529a2.94,2.94,0,0,1,1.912-.675l.787.067Zm-4.835,3.261a3.682,3.682,0,0,1,.18,2.879c-.27.382-.36.382-1.282.045-1.349-.472-1.6-.72-1.6-1.574C194.981-243.661,196.916-244.628,197.68-243.706Zm5.892,3.643c.922.832.157,2.991-1.057,2.991a3.039,3.039,0,0,1-1.327-.877c-.72-.742-.81-.944-.607-1.327C201.121-240.287,202.831-240.737,203.573-240.063Zm-7.669,1.125c.99.585,1.012.989.112,1.8-1.417,1.3-2.834.832-2.834-.967,0-.54.112-.99.292-1.057A3.4,3.4,0,0,1,195.9-238.938Z" transform="translate(0 0)" fill="rgba(115,136,68,1)"/>
    <path id="Path_12" data-name="Path 12" d="M138.7-190.1a15.1,15.1,0,0,1-1.754,1.057c-1.125.517-1.237.652-1.732,1.979-.382,1.1-.382,1.214-.045,1.957a3.642,3.642,0,0,1,.382.99c0,.112.337.337.742.54.382.2,1.1.54,1.552.765a3.41,3.41,0,0,0,2.024.27,14.512,14.512,0,0,0,4.138-.832c.45-.4.382-.9-.112-.9-.63,0-.81-.81-.36-1.484.472-.72.315-1.439-.472-2.137a8.65,8.65,0,0,1-1.1-1.349,3.048,3.048,0,0,0-1.439-1.147C139.625-190.751,139.6-190.751,138.7-190.1Z" transform="translate(-14.342 -25.809)" fill="rgba(115,136,68,1)"/>
    <path id="Path_13" data-name="Path 13" d="M155.208-189.383a4.048,4.048,0,0,0-1.439.967c-.675.7-.765.945-.877,2.339-.112,1.664-.18,1.552,1.35,2.721a6.4,6.4,0,0,0,4.925.63,4.87,4.87,0,0,0,2.272-2.182,4.56,4.56,0,0,0-.158-3.059c-.382-.607-2.114-1.214-3.4-1.214a6.193,6.193,0,0,1-1.484-.18A2.363,2.363,0,0,0,155.208-189.383Z" transform="translate(-18.365 -26.075)" fill="rgba(115,136,68,1)"/>
    <path id="Path_14" data-name="Path 14" d="M327.189-185.6c.023,1.934.09,2.384.2,1.642.09-.562.18-1.125.225-1.237a.989.989,0,0,0-.112-.63,3.8,3.8,0,0,1-.045-1.394c.045-.562.023-1.012-.09-1.012A9.256,9.256,0,0,0,327.189-185.6Z" transform="translate(-57.516 -26.348)" fill="rgba(115,136,68,1)"/>
    <path id="Path_15" data-name="Path 15" d="M331.6-186.519c0,.495.045.675.09.382a3.012,3.012,0,0,0,0-.9C331.618-187.239,331.573-187.014,331.6-186.519Z" transform="translate(-58.505 -26.6)" fill="rgba(115,136,68,1)"/>
    <path id="Path_16" data-name="Path 16" d="M328.717-184.211a.47.47,0,0,0,.112.495c.18.18.247.112.247-.247C329.077-184.5,328.965-184.593,328.717-184.211Z" transform="translate(-57.853 -27.198)" fill="rgba(115,136,68,1)"/>
    <path id="Path_17" data-name="Path 17" d="M141.133-176.17a7.768,7.768,0,0,1-1.957.4,13.836,13.836,0,0,0-3.621,1.417,13.965,13.965,0,0,0-4.633,3.1,16.939,16.939,0,0,0-2.474,2.946,30.8,30.8,0,0,0-2.969,7.422,4.162,4.162,0,0,1-.315,1.012c-.292.472-.72,4.026-1.012,8.771-.18,2.721-.4,5.623-.495,6.477a20.709,20.709,0,0,0,.112,3.823c.157,1.26.36,3.666.472,5.33.54,7.782.877,9.918,1.912,11.92a9.083,9.083,0,0,0,1.552,1.732c.9.832,1.259,1.349,1.259,1.754a.732.732,0,0,0,.517.765c.652.27,1.259.855,2.519,2.474a6.381,6.381,0,0,0,1.214,1.372,1.676,1.676,0,0,1,.607.4,5.537,5.537,0,0,0,1.484.81c.922.36,1.327.382,3.486.157,1.327-.135,2.766-.292,3.194-.382.855-.18,1.125.09,1.147,1.147.023,1.282,1.979,1.979,3.194,1.147a3.128,3.128,0,0,1,1.529-.36c2.834-.022,7.6-2.766,9.154-5.285a19.658,19.658,0,0,0,1.979-5.218,1.809,1.809,0,0,1,.36-.855.673.673,0,0,0,.2-.495,4.141,4.141,0,0,1,.36-1.147c.18-.472.472-1.147.63-1.507a40.119,40.119,0,0,0,2.721-8.546c.337-1.687.4-3.621.4-11.7.045-8.749,0-9.828-.382-11.245-.225-.877-.562-1.889-.72-2.294a3.539,3.539,0,0,1-.315-.9,4.784,4.784,0,0,0-.562-1.215c-.315-.54-.63-1.147-.72-1.327s-.675-1.057-1.3-1.912a22.807,22.807,0,0,1-1.709-2.654c-1.1-2.272-3.868-4.3-7.557-5.533a11.228,11.228,0,0,0-4.116-.472c-2.2,0-2.744-.068-2.834-.337a.645.645,0,0,1,.135-.652c.2-.27.157-.382-.2-.562C142.8-176.688,142.595-176.665,141.133-176.17Zm6.95,4.858a5.48,5.48,0,0,1,1.372.99c.99,1.012,1.574,2.384,2.7,6.185.09.36.292,1.327.427,2.137.112.81.315,1.957.427,2.586a26.155,26.155,0,0,1,.023,6.522c-.112.855-.315,2.631-.45,3.936-.112,1.3-.315,2.969-.427,3.711-.135.742-.337,3.126-.472,5.285a72.223,72.223,0,0,1-.877,8.951c-.135.585-.4,1.867-.585,2.856-.2.99-.472,2.2-.585,2.7-.382,1.529-.877,4-1.057,5.173a4.243,4.243,0,0,1-2.361,3.261c-1.642.945-2.406.9-3.486-.225a4.29,4.29,0,0,0-1.957-1.214,4.785,4.785,0,0,1-2.834-2.7c-.787-1.642-.4-1.934.99-.787.855.7,1.439.765.742.09a1.24,1.24,0,0,1-.36-.517,4.755,4.755,0,0,0-.81-1.057c-1.237-1.372-1.664-2.609-1.889-5.285-.112-1.3-.315-3.419-.427-4.723a103.967,103.967,0,0,1-.585-13.967c.18-2.654.2-8.884.09-14.1a10.4,10.4,0,0,1,.652-4.251c.112-.225.45-.922.742-1.529a11.53,11.53,0,0,1,4.071-4.183c.855-.382,1.3-.427,3.553-.36A9.1,9.1,0,0,1,148.083-171.313Z" transform="translate(-11.801 -28.964)" fill="rgba(115,136,68,1)"/>
    <path id="Path_18" data-name="Path 18" d="M252.05-175.352a47.2,47.2,0,0,1-4.836.36c-2,.023-2.361.09-3.284.63a11.137,11.137,0,0,0-2.114,1.8c-1.214,1.282-1.732,1.552-2.519,1.282-.675-.247-1.124.18-2.834,2.766a42.479,42.479,0,0,0-4.521,9.064,22.6,22.6,0,0,0-1.237,6.073c-.112,1.349-.427,4.251-.675,6.41a73.122,73.122,0,0,0-.472,7.444,16.755,16.755,0,0,1-.315,4.408,1.761,1.761,0,0,0-.023,1.574,8.82,8.82,0,0,1,.45,1.664c.09.54.315,1.552.495,2.226a27.19,27.19,0,0,1,.54,4.116c.2,3.239.382,3.891,2.182,7.557a13.2,13.2,0,0,0,2.744,4.071c1.417,1.462,2.7,2.249,3.621,2.249a4.331,4.331,0,0,1,1.282.36c.63.292,1.777.382,4.88.427a36.152,36.152,0,0,0,4.835-.113,21.157,21.157,0,0,0,3.531-1.035,3.347,3.347,0,0,1,.922-.315,27.954,27.954,0,0,0,3.756-1.957c.495-.27,1.057-.562,1.237-.652a16.962,16.962,0,0,0,6.545-4.386,22.41,22.41,0,0,1,2.316-2,8.1,8.1,0,0,0,1.619-1.732,6.8,6.8,0,0,1,1.349-1.574c1.507-1.035,1.867-1.529,2.024-2.631l.157-1.1-.652.158a5.856,5.856,0,0,0-1.529.877c-.517.4-1.079.832-1.259.99a28.429,28.429,0,0,1-3.6,2.564c-.675.4-1.709,1.08-2.294,1.484a41.447,41.447,0,0,1-3.868,2.2l-2.811,1.439-3.666.068c-4.116.067-4.273.022-5.758-1.574a13.737,13.737,0,0,1-2.294-4.318c-.112-.427-.315-1.192-.427-1.687a7.661,7.661,0,0,1-.247-1.642,3.33,3.33,0,0,0-.675-1.664l-.675-.922.022-8.681c0-4.768.09-9.131.2-9.693.09-.562.292-1.6.427-2.339a6.643,6.643,0,0,1,.427-1.574,4.3,4.3,0,0,0,.36-1.349,3.875,3.875,0,0,1,.337-1.349,3.316,3.316,0,0,0,.36-1.034,6.988,6.988,0,0,1,.337-1.125,23.773,23.773,0,0,0,1.035-3.6,24.415,24.415,0,0,1,2.227-5.915,3.135,3.135,0,0,0,.337-.922c0-.36.585-1.147,1.777-2.294.832-.81.945-.99.63-1.125-.472-.18-.495-.675-.023-.855a8.947,8.947,0,0,1,1.777-.135c3.441,0,6.41,2.294,6.41,4.97a38.943,38.943,0,0,0,.922,5.825c.135.562.337,1.574.427,2.249a15.463,15.463,0,0,0,1.1,4.048c.36.675,1.17,1.574,1.394,1.574a5.035,5.035,0,0,0,1.1-2.227c0-.675.562-1.012.967-.585.607.607,1.17.4,1.507-.517.225-.63.292-2.271.27-6.792-.022-5.51-.045-6.027-.472-6.882-.877-1.777-2.856-2.991-6.882-4.228a38.531,38.531,0,0,0-6.05-.787C254.749-175.712,253.467-175.554,252.05-175.352ZM234.845-155.92a14.1,14.1,0,0,1-.135,2.879c-.135,1.169-.315,3.126-.4,4.318a8.583,8.583,0,0,1-.315,2.339c-.09.09-.45.067-.787-.045-.607-.2-.607-.247-.675-2.339a13.1,13.1,0,0,1,.27-3.486c.18-.742.382-1.777.45-2.294.18-1.3.585-2.092,1.057-2.092C234.6-156.64,234.755-156.415,234.845-155.92Z" transform="translate(-35.478 -29.153)" fill="rgba(115,136,68,1)"/>
    <path id="Path_19" data-name="Path 19" d="M296.442-175.247a2.805,2.805,0,0,0-1.1.4,2.165,2.165,0,0,1-1.079.315c-.562,0-.63.09-.765,1.125-.2,1.507-.652,1.844-2.744,2.137-1.327.18-1.754.337-1.8.63-.068.27.067.382.45.382a3.218,3.218,0,0,1,1.17.337,3.292,3.292,0,0,0,1.282.337c1.17,0,1.484.652,1.687,3.329.18,2.946-.022,15.226-.337,19.387-.135,1.664-.36,4.5-.495,6.3s-.337,6.455-.427,10.346c-.315,12.437-.472,15.361-.832,15.788a18.663,18.663,0,0,1-4.9,1.349.649.649,0,0,0-.517.585c-.067.4.09.585.72.832,1.3.562,8.929.36,13.359-.337,1.417-.225,1.732-.2,2.181.09.765.495,1.17.45,1.6-.225.742-1.1,1.44-1.282,6.162-1.484,4.925-.2,8.929-.585,9.491-.877a10.971,10.971,0,0,1,2.137-.45,7.55,7.55,0,0,0,1.957-.427c.09-.112.023-.4-.18-.7-.675-.967-.36-1.552.787-1.552,1.035,0,.652-1.035-.585-1.552-.607-.27-6.14.09-8.1.517-.855.18-2.271.45-3.149.585-.855.135-1.867.337-2.249.45a15.8,15.8,0,0,1-2.137.36,5.706,5.706,0,0,0-1.687.337,4.5,4.5,0,0,1-1.147.337c-.652.09-.967.045-1.169-.2-.45-.54.652-1.282,1.957-1.3,1.889-.023,2.092-.4.2-.4-1.574-.022-1.754-.067-2.182-.607-.81-1.035-.81-3.464,0-6.95a21.13,21.13,0,0,0,.337-3.261c.36-13.09.4-13.742.855-14.079a4.9,4.9,0,0,1,2.137-.337,25.44,25.44,0,0,0,6.545-.832,29.179,29.179,0,0,1,2.879-.607c.7-.09,1.259-.292,1.327-.472.157-.4-.315-.967-1.057-1.282a86.7,86.7,0,0,0-10.143-.4c-1.282,0-1.8-.067-2-.315-.225-.27-.292-2.092-.247-7.624a67.623,67.623,0,0,0-.2-7.894,14.159,14.159,0,0,1-.247-5.24c.382-1.349.945-1.844,2.114-1.844a6.072,6.072,0,0,0,1.732-.27,65.3,65.3,0,0,1,7.647-.4c6.387-.157,10.346-.495,10.346-.922a2.2,2.2,0,0,0-.495-.7,6.076,6.076,0,0,0-5.24-1.754,104.959,104.959,0,0,1-10.683.99c-2.406.18-4.588.382-4.835.472a1.618,1.618,0,0,1-1.237-.382A13.278,13.278,0,0,0,296.442-175.247Zm-2.249,56.721a10.677,10.677,0,0,1,.36,1.574c.27,1.664-.023,2.249-1.057,2.249-.585,0-.742-.112-.855-.562C292.236-116.884,293.518-119.606,294.193-118.526Z" transform="translate(-48.27 -29.258)" fill="rgba(115,136,68,1)"/>
    <path id="Path_20" data-name="Path 20" d="M76.294-173.721a14.226,14.226,0,0,1-2.024.585c-.472.045-.607.225-.72.922a3.212,3.212,0,0,1-.765,1.507c-.607.63-.63.72-.45,2.069a15.21,15.21,0,0,1,.135,1.867c-.045.247-.112,4.048-.157,8.434-.135,10.121.607,25.909,1.507,32.611.112.922.315,3.149.427,4.948.247,3.778.652,6.23,1.125,6.882a3.943,3.943,0,0,0,1.417.877,2.5,2.5,0,0,0,2.294.022,15.969,15.969,0,0,1,2.362-.517c.855-.09,1.124-.225,1.124-.517,0-.495.607-1.035,1.417-1.215.382-.09.607-.292.607-.562a7.83,7.83,0,0,1,.675-1.777l.7-1.349-.09-5.263a134.407,134.407,0,0,0-.855-14.439c-.135-.742-.292-2.2-.36-3.261-.135-2.114.067-2.609,1.08-2.451.4.045.585.36.922,1.529.72,2.451,1.777,5.69,2.114,6.455a3.344,3.344,0,0,1,.315.922,3.171,3.171,0,0,0,.337.855,3.181,3.181,0,0,1,.337.99,1.6,1.6,0,0,0,.337.765,1.79,1.79,0,0,1,.337.855,1.833,1.833,0,0,0,.225.81c.112.2.585,1.349,1.012,2.519.45,1.17.9,2.339,1.035,2.586.112.247.45,1.215.765,2.137.652,1.957,1.732,5.015,2.092,5.915a3.282,3.282,0,0,1,.27.832,4.63,4.63,0,0,0,.382.945c.2.4.517,1.035.7,1.417.36.72,1.035,1.462,1.327,1.462.112,0,.36-.2.562-.45.495-.54.652-.495,3.194,1.237l2,1.349,2.249-.068c2.272-.067,2.879-.225,3.6-.967a3.1,3.1,0,0,1,1.507-.562c.63-.09,1.124-.225,1.124-.337a8.429,8.429,0,0,0-.63-1.372,8.581,8.581,0,0,1-.81-2.092,16.412,16.412,0,0,0-2.384-5.51c-.36-.54-2.114-3.374-2.362-3.778-.135-.2-.607-.967-1.08-1.664a16.9,16.9,0,0,1-1.057-1.8c-.135-.292-.45-.877-.7-1.3-.495-.787-1.957-3.643-2.924-5.69a2.951,2.951,0,0,0-.652-1.057,6.644,6.644,0,0,1-1.012-2.249c-.09-.315-.765-1.822-1.507-3.374s-1.8-3.733-2.339-4.858c-1.507-3.149-1.3-4.768.787-6.185a3.965,3.965,0,0,0,1.912-2.227,8.561,8.561,0,0,1,.742-1.372,1.331,1.331,0,0,0,.292-.72,1.14,1.14,0,0,1,.292-.652c.157-.157,1.1-1.349,2.069-2.654,1.867-2.5,4.341-5.578,5.24-6.522a33.336,33.336,0,0,0,3.509-4.633,1.007,1.007,0,0,0-.337-.967c-.517-.54-.337-.585-2.114.562a94.542,94.542,0,0,0-8.074,8.074c-3.014,3.4-3.329,3.733-4.3,4.948-.922,1.169-1.057,1.327-2.5,3.059-.495.585-1.1,1.349-1.372,1.687-.27.36-.675.855-.9,1.1s-.81.967-1.3,1.574c-.495.63-.99,1.237-1.125,1.372-.112.135-.72.832-1.327,1.529-.877,1.035-1.214,1.26-1.687,1.215-.562-.067-.585-.157-.72-1.642-.09-.877-.157-3.823-.18-6.567a35.134,35.134,0,0,0-.27-5.623,17.905,17.905,0,0,1-.337-3.441c-.112-3.4-.675-6.815-1.192-7.287a9.93,9.93,0,0,0-3.8-1.012A10.338,10.338,0,0,0,76.294-173.721Z" transform="translate(-0.265 -29.48)" fill="rgba(115,136,68,1)"/>
    <path id="Path_21" data-name="Path 21" d="M212.884-173.962a122.008,122.008,0,0,0-5.578,11.155c-.18.427-.472,1.08-.63,1.462-.427.922-.877,2.024-1.439,3.486-.72,1.777-.922,2.272-1.282,2.991a2.971,2.971,0,0,0-.315.877,13.71,13.71,0,0,1-1.012,2.541,9.31,9.31,0,0,0-.517,1.462c-.135.63-.315.81-.787.855-.337.045-.607-.045-.607-.18a12.526,12.526,0,0,0-.787-1.889,10,10,0,0,1-.787-2,.673.673,0,0,0-.2-.495,1.81,1.81,0,0,1-.36-.855c-.18-.81-.472-1.8-1.462-4.768a13.308,13.308,0,0,1-.675-2.519.808.808,0,0,0-.2-.607,2.611,2.611,0,0,1-.36-1.1A6.936,6.936,0,0,0,194.4-166.7a3.467,3.467,0,0,1-.652-1.327,2.5,2.5,0,0,0-1.034-1.844c-.675-.27-.922.247-.472,1.012a2.977,2.977,0,0,1,.247,2.294c-.27.247-1.147-.54-2.2-1.957a11.2,11.2,0,0,0-6.14-4.611,9.574,9.574,0,0,0-2.654-.472c-1.214,0-1.259.023-1.574.787-.382.877-.247,1.417,1.057,4.026a17.781,17.781,0,0,1,1.08,3.486,1.09,1.09,0,0,0,.2.607,3.508,3.508,0,0,1,.427,1.214c.135.562.4,1.574.585,2.249s.45,1.687.585,2.249c.247.967.495,1.912,1.282,4.656.2.72.495,1.687.652,2.159a4.725,4.725,0,0,1,.315,1.349,1.194,1.194,0,0,0,.2.72,3.528,3.528,0,0,1,.45,1.125c.945,3.733,1.192,4.363,2.429,6a5.871,5.871,0,0,1,.967,1.574.819.819,0,0,0,.2.517,5.225,5.225,0,0,1,.472,1.687c.157.81.36,2.024.495,2.7a55.213,55.213,0,0,1,.045,7.309c-.315,10.278-.18,14.6.495,15.518.315.427.337.427.9-.292.63-.787,1.417-.945,1.889-.382a1.028,1.028,0,0,0,.675.337,7.48,7.48,0,0,1,1.934,1.012,7.562,7.562,0,0,0,2,1.012,3.637,3.637,0,0,0,1.327-.675,1.827,1.827,0,0,1,1.732-.54c.765.135.877.09,1.192-.562.337-.63.36-1.979.27-12.775-.067-6.657-.18-13.112-.247-14.349-.18-2.609-.045-3.171,1.372-6.072.54-1.125.99-2.114.99-2.2a3.539,3.539,0,0,1,.315-.9c.18-.4.54-1.372.787-2.182.27-.81.585-1.709.72-2.024s.382-.877.517-1.237c.157-.382.45-1.035.652-1.462a18.2,18.2,0,0,0,1.934-5.69,14.241,14.241,0,0,1,1.012-3.216,10.978,10.978,0,0,0,.81-1.957,2.369,2.369,0,0,1,.315-.855,14.5,14.5,0,0,0,1.259-3.981,1.8,1.8,0,0,0-.517-1.147C213.221-174.232,213.109-174.254,212.884-173.962Z" transform="translate(-24.402 -29.509)" fill="rgba(115,136,68,1)"/>
  </g>
</svg>
