<?xml version="1.0" standalone="no"?>
<!DOCTYPE svg PUBLIC "-//W3C//DTD SVG 20010904//EN"
 "http://www.w3.org/TR/2001/REC-SVG-20010904/DTD/svg10.dtd">
<svg version="1.0" xmlns="http://www.w3.org/2000/svg"
 width="1350.000000pt" height="1350.000000pt" viewBox="0 0 1350.000000 1350.000000"
 preserveAspectRatio="xMidYMid meet">
<metadata>
Created by potrace 1.10, written by Peter Selinger 2001-2011
</metadata>
<g transform="translate(0.000000,1350.000000) scale(0.100000,-0.100000)"
fill="#000000" stroke="none">
<path d="M4166 10505 c-19 -100 -54 -177 -104 -222 -33 -32 -38 -33 -116 -33
-138 -1 -379 -31 -411 -51 -5 -4 -26 -10 -45 -13 -50 -10 -154 -50 -210 -80
-14 -8 -40 -22 -59 -33 -19 -10 -40 -21 -45 -26 -167 -120 -251 -192 -435
-369 -135 -131 -220 -201 -266 -218 -14 -5 -25 -16 -25 -25 0 -15 13 -19 84
-29 49 -7 86 -31 86 -57 0 -11 -7 -36 -16 -57 -11 -28 -14 -54 -9 -108 5 -53
3 -82 -10 -119 -9 -27 -13 -60 -10 -73 l6 -25 28 27 c15 14 32 26 38 26 21 0
100 -40 118 -60 25 -27 40 -25 97 11 45 29 50 30 72 16 13 -9 47 -63 75 -121
60 -121 109 -175 201 -223 73 -39 118 -42 147 -10 36 39 44 66 50 160 3 51 9
97 13 102 5 6 35 64 69 131 33 66 70 131 82 145 11 13 26 31 33 39 6 9 23 23
37 32 23 15 29 15 46 3 16 -11 22 -29 25 -79 4 -74 22 -101 71 -112 38 -8 74
-30 105 -64 24 -26 102 -178 102 -199 0 -7 11 -27 25 -45 14 -18 25 -40 25
-48 0 -21 -64 -93 -108 -119 -20 -13 -46 -31 -56 -41 -11 -10 -22 -18 -25 -18
-3 0 -17 -16 -30 -35 -21 -31 -23 -43 -19 -108 3 -39 10 -81 16 -92 43 -79
112 -239 122 -285 16 -74 43 -126 95 -181 23 -25 54 -63 67 -85 14 -22 33 -45
42 -53 9 -7 16 -25 16 -40 0 -23 -9 -31 -61 -55 -55 -25 -64 -27 -110 -17 -28
6 -72 11 -99 11 l-50 0 0 -35 c0 -48 55 -158 88 -177 15 -8 44 -18 64 -21 24
-4 56 -21 86 -46 53 -45 89 -52 138 -26 16 8 54 15 85 15 62 0 76 -10 133 -97
l31 -48 70 -6 c70 -6 115 -24 225 -94 49 -31 50 -31 50 -1 0 31 18 78 33 88
20 13 106 9 135 -6 15 -8 38 -26 51 -40 32 -34 41 -33 70 9 29 43 59 52 99 31
39 -20 117 -20 172 -1 56 20 124 19 140 -1 11 -12 11 -26 0 -77 -21 -103 -23
-136 -9 -168 16 -40 74 -65 168 -75 80 -7 78 -9 83 91 3 42 6 50 22 50 16 0
22 -11 30 -55 11 -53 12 -55 56 -68 33 -10 78 -12 169 -7 l123 6 47 -50 c52
-58 72 -62 153 -33 59 20 113 75 152 157 41 82 72 90 351 90 191 0 224 -2 252
-18 18 -9 38 -27 44 -40 35 -68 76 -81 164 -52 40 14 50 14 90 1 25 -9 53 -20
62 -25 10 -5 37 -17 61 -27 23 -9 52 -30 65 -47 65 -85 67 -87 111 -87 35 0
48 6 77 36 18 20 52 45 74 56 34 18 43 19 75 8 19 -7 42 -18 50 -25 8 -7 30
-20 49 -30 l35 -18 28 34 c68 81 74 83 153 44 28 -13 54 -25 59 -25 5 0 24
-12 43 -26 18 -14 49 -28 67 -31 29 -4 37 -1 56 25 12 16 39 37 59 46 33 15
42 16 94 2 58 -15 139 -13 187 5 14 5 48 14 75 19 76 14 167 36 200 49 51 21
168 18 201 -4 19 -13 47 -19 84 -20 51 0 60 4 117 48 66 50 86 56 120 32 17
-12 60 -15 210 -16 l188 -1 48 -29 c26 -16 51 -29 55 -29 4 0 20 -7 37 -16 36
-19 177 -30 225 -17 24 6 40 18 50 38 8 17 23 41 32 54 l17 25 80 -28 c79 -28
81 -28 133 -11 52 16 118 45 128 55 12 13 77 53 148 92 26 14 64 35 83 46 68
38 142 53 201 41 70 -14 155 -38 196 -55 66 -28 115 -11 158 58 43 68 29 214
-25 255 -9 7 -38 13 -64 13 -82 0 -117 57 -83 135 11 26 11 35 -5 65 -9 19
-26 44 -37 56 -38 40 -49 78 -54 179 -4 85 -9 108 -31 148 -15 26 -32 67 -38
90 -6 23 -17 67 -25 97 -42 169 -106 340 -141 377 -6 7 -14 37 -17 65 -15 161
-29 264 -37 279 -18 34 -10 98 18 142 93 148 106 228 51 319 -17 29 -45 68
-62 86 -26 28 -36 32 -80 32 -28 0 -62 6 -76 14 -14 7 -44 23 -66 35 -23 12
-66 26 -95 30 -53 9 -99 43 -99 76 0 7 -17 28 -39 47 -49 42 -56 65 -40 142
15 78 2 112 -55 140 -36 18 -46 18 -110 7 -39 -6 -77 -18 -86 -26 -10 -9 -37
-15 -69 -15 -64 0 -64 -15 0 -48 24 -13 47 -29 51 -35 11 -17 -1 -48 -28 -78
-25 -26 -31 -58 -15 -75 5 -5 11 -24 13 -42 3 -35 2 -34 98 -81 70 -34 85 -62
84 -151 -1 -42 -6 -85 -13 -97 -13 -26 -15 -159 -2 -168 13 -8 38 -59 46 -94
3 -16 25 -48 49 -72 73 -76 72 -109 -6 -153 -29 -16 -76 -53 -106 -83 l-54
-53 -172 1 c-246 1 -819 29 -991 49 -82 9 -181 18 -416 39 -47 5 -114 13 -150
19 -60 11 -118 19 -294 43 -38 5 -83 14 -99 19 -16 6 -43 10 -59 10 -17 0 -56
6 -86 14 -77 20 -147 35 -204 46 -26 5 -62 13 -80 19 -17 5 -58 16 -90 25
-113 31 -172 50 -184 59 -13 10 -9 45 8 82 13 26 8 125 -6 127 -5 1 -17 -24
-25 -56 -9 -35 -28 -73 -49 -98 l-34 -41 -121 6 c-178 9 -251 34 -317 104 -45
49 -65 80 -74 121 -11 51 5 62 92 62 82 0 127 17 176 66 35 35 52 64 37 64 -5
0 -10 -4 -10 -8 0 -14 -69 -42 -106 -42 -39 0 -100 28 -125 56 -24 28 -49 84
-49 109 0 13 8 33 19 46 15 19 30 24 84 27 83 5 101 22 100 92 0 28 -8 67 -18
87 -9 21 -22 52 -30 68 -30 70 -39 85 -47 85 -13 0 -9 -66 6 -102 45 -106 44
-158 -4 -183 -75 -39 -162 -10 -216 71 -81 121 -239 204 -392 204 -35 0 -66 5
-74 13 -22 20 -49 35 -123 71 -171 82 -205 89 -415 89 -163 0 -242 -10 -315
-42 -80 -35 -97 -41 -113 -41 -10 0 -22 -4 -27 -9 -11 -10 -91 -24 -251 -43
-74 -8 -123 -8 -190 0 -106 13 -180 26 -214 40 -14 5 -52 17 -85 27 -33 9 -73
23 -90 30 -42 18 -188 68 -260 89 -98 29 -108 34 -100 54 23 60 32 216 16 272
-7 23 -8 22 -15 -15z m2396 -751 c11 -11 29 -39 40 -64 25 -57 35 -231 19
-310 -7 -30 -16 -77 -21 -105 -5 -27 -17 -56 -27 -62 -22 -17 -89 -17 -100 0
-4 6 -8 107 -8 222 0 181 -2 214 -17 242 -21 38 -23 74 -5 92 17 18 93 8 119
-15z m-2965 -416 c31 -29 29 -38 -14 -89 -71 -83 -133 -187 -133 -223 0 -18
-27 -46 -44 -46 -23 0 -55 36 -77 85 -18 41 -20 58 -14 123 8 86 28 137 59
148 52 18 75 22 135 23 54 1 69 -3 88 -21z m2992 -186 c33 -25 45 -46 38 -66
-6 -14 -20 -16 -94 -14 -95 3 -103 9 -89 64 12 46 93 55 145 16z m18 -188 c86
-37 185 -118 225 -182 11 -18 37 -44 58 -57 34 -21 50 -24 183 -27 126 -3 148
-6 166 -22 29 -26 36 -15 15 25 -22 44 -52 67 -94 75 -56 10 -100 34 -113 61
-10 22 -8 28 12 44 16 13 28 16 40 9 39 -20 118 -23 175 -5 58 19 89 17 176
-10 117 -35 244 -66 349 -86 30 -5 58 -12 62 -15 10 -6 161 -31 262 -44 37 -5
82 -13 100 -19 17 -5 79 -15 137 -21 58 -6 161 -17 230 -25 69 -8 195 -19 280
-25 85 -6 179 -15 209 -20 30 -6 213 -10 406 -10 194 0 447 -3 563 -7 250 -7
248 -5 149 -111 -34 -37 -94 -105 -133 -152 -160 -193 -207 -268 -240 -384
-19 -64 -56 -116 -83 -116 -9 0 -26 7 -37 15 -40 27 -303 155 -623 302 -61 28
-93 60 -84 83 3 8 10 35 15 60 6 25 14 50 18 55 8 10 13 51 11 92 -1 15 -6 21
-16 17 -15 -6 -55 -68 -55 -86 0 -5 -6 -24 -14 -41 -8 -18 -17 -48 -20 -68
-10 -58 -24 -63 -98 -38 -87 30 -188 48 -354 62 -89 8 -147 17 -158 26 -11 10
-16 30 -16 73 0 50 -4 63 -24 81 -40 37 -196 77 -225 58 -11 -7 -13 -26 -7
-90 l6 -81 -27 -6 c-15 -4 -59 0 -102 10 -42 10 -86 20 -99 22 -15 3 -29 17
-39 42 -19 47 -58 98 -84 113 -26 14 -59 -13 -59 -48 0 -12 -10 -33 -21 -44
-20 -20 -28 -21 -137 -14 -64 3 -141 11 -171 17 -180 32 -238 41 -346 53 -160
19 -242 33 -265 45 -10 5 -26 10 -35 10 -17 0 -47 12 -131 51 -59 27 -129 93
-155 143 -42 85 -12 192 63 229 39 19 80 14 155 -19z m-1782 -273 c84 -21 107
-22 340 -17 138 2 313 9 390 15 181 14 265 17 291 8 23 -8 64 -75 64 -105 0
-12 4 -23 9 -27 5 -3 13 -20 17 -38 3 -17 12 -45 19 -62 7 -16 21 -50 30 -75
9 -25 21 -53 27 -64 51 -98 65 -280 26 -345 -12 -20 -25 -38 -29 -41 -10 -8
-39 -115 -39 -145 0 -37 -32 -86 -96 -146 -29 -29 -56 -63 -59 -79 -3 -16 -12
-30 -19 -33 -25 -10 -931 14 -943 25 -16 13 -16 57 -3 128 10 52 -1 132 -21
155 -5 5 -9 22 -9 38 0 22 -16 44 -73 100 -77 75 -117 139 -117 185 0 27 -26
148 -40 187 -4 11 -23 54 -42 95 -67 144 -70 156 -39 206 39 64 146 76 316 35z
m5653 -37 c38 -26 28 -56 -37 -112 -32 -28 -108 -101 -169 -162 -61 -60 -116
-110 -122 -110 -22 0 20 118 55 156 5 6 17 22 25 35 43 65 189 209 213 209 7
0 23 -7 35 -16z m137 -142 c4 -20 -3 -45 -25 -87 -16 -33 -30 -73 -30 -90 -1
-16 -8 -48 -17 -70 -9 -22 -19 -94 -24 -160 -25 -364 -27 -377 -68 -445 -6 -8
-24 -46 -42 -83 -34 -73 -62 -99 -133 -118 -21 -6 -45 -17 -53 -25 -10 -10
-38 -14 -92 -14 -106 0 -113 9 -72 93 17 35 31 71 31 79 0 10 -26 29 -67 49
-88 41 -103 55 -103 93 0 82 254 417 529 699 83 83 112 107 133 107 21 0 28
-6 33 -28z m-2444 -22 c10 0 37 -16 59 -36 31 -28 40 -44 40 -69 0 -25 -5 -34
-22 -39 -35 -9 -104 -7 -132 4 -24 9 -26 14 -26 69 0 62 16 87 48 76 8 -3 22
-5 33 -5z m-1408 -12 c23 -13 113 -33 212 -49 33 -5 71 -13 85 -18 14 -5 47
-12 75 -15 27 -4 63 -10 80 -16 16 -5 57 -14 90 -20 33 -6 98 -17 145 -26 47
-9 99 -18 117 -21 45 -7 50 -18 83 -148 5 -22 16 -49 24 -60 13 -18 16 -18 29
-5 8 8 24 40 36 70 13 30 31 66 42 79 19 24 21 24 142 17 90 -5 125 -10 133
-21 12 -16 11 -38 -7 -195 -5 -47 -9 -108 -9 -137 0 -46 -3 -54 -29 -72 -16
-12 -33 -21 -38 -21 -17 0 -66 -45 -91 -85 -23 -36 -26 -50 -28 -148 0 -59 -3
-110 -6 -112 -10 -10 -1003 17 -1015 27 -22 18 -14 53 17 83 27 26 30 35 30
91 0 48 6 74 25 110 39 73 31 135 -28 224 -97 146 -167 272 -179 325 -21 87
-21 128 -2 142 22 16 39 16 67 1z m-2458 -80 c14 -17 44 -70 67 -117 102 -217
145 -299 191 -364 24 -36 27 -49 27 -122 0 -81 0 -81 -54 -166 l-53 -84 -67
-3 c-55 -2 -71 1 -93 18 -14 11 -32 20 -39 20 -7 0 -20 10 -28 22 -13 19 -13
25 0 57 19 43 24 272 7 293 -6 7 -13 25 -16 39 -10 41 -129 147 -174 155 -54
10 -68 19 -87 58 -25 53 -21 129 8 163 23 26 30 28 98 28 53 0 80 5 98 18 39
28 84 22 115 -15z m2136 -61 c35 -24 86 -113 100 -177 31 -137 41 -169 63
-212 29 -55 33 -113 12 -143 -22 -32 -37 -126 -34 -211 l3 -79 -170 -3 c-93
-2 -184 0 -202 3 l-32 6 2 112 c1 62 -4 144 -12 184 -7 39 -11 82 -7 96 3 13
30 51 60 83 68 73 111 158 127 249 21 124 30 133 90 92z m4453 -6 c9 -10 20
-36 23 -57 4 -28 30 -71 88 -149 78 -103 125 -186 125 -218 0 -8 14 -40 31
-72 29 -54 37 -66 65 -98 29 -33 35 -157 11 -205 -8 -15 -24 -48 -35 -73 l-21
-47 -298 5 c-289 5 -299 6 -315 27 -19 23 -23 57 -9 71 5 6 11 48 13 95 3 79
7 90 44 150 57 91 67 128 59 210 -8 79 10 131 67 190 34 36 68 99 68 126 0 16
43 64 58 64 5 0 17 -8 26 -19z m-2624 -79 l35 -17 0 -84 c0 -90 3 -86 -65
-114 -66 -28 -110 -41 -116 -35 -9 10 -12 190 -3 215 9 23 59 51 94 52 11 0
36 -8 55 -17z m210 -68 c52 -9 118 -19 147 -24 55 -9 93 -20 188 -54 l60 -22
-1 -44 c-1 -42 -21 -113 -44 -152 -6 -10 -10 -25 -10 -34 0 -9 -6 -30 -14 -47
-8 -18 -30 -81 -51 -142 -20 -60 -40 -118 -45 -127 -17 -30 -11 -38 28 -38 47
0 45 -4 111 200 28 85 55 162 60 171 5 9 13 33 16 53 4 20 11 39 16 42 5 3 9
13 9 22 1 59 36 52 129 -25 128 -107 191 -175 191 -206 0 -25 -34 -87 -52 -95
-5 -2 -8 -7 -8 -12 0 -5 -32 -57 -71 -116 l-72 -107 -201 7 c-313 11 -464 20
-472 29 -4 4 -2 22 4 40 16 44 15 158 -1 188 -7 13 -21 37 -31 52 l-19 28 32
32 c43 45 42 86 -2 107 l-32 15 -3 124 c-3 121 4 151 32 151 6 0 54 -7 106
-16z m-185 -254 l0 -75 -45 -3 c-25 -2 -63 3 -85 10 -36 12 -40 16 -40 48 0
31 6 39 50 68 37 24 59 32 85 30 l35 -3 0 -75z m-215 -145 c19 -23 24 -106 8
-128 -12 -17 -16 -17 -57 -2 -60 21 -71 32 -71 70 0 58 86 101 120 60z m262
-162 c41 -37 7 -133 -47 -133 -11 0 -38 18 -59 39 -32 33 -36 42 -27 59 24 45
100 65 133 35z m-341 -50 c44 -26 45 -44 5 -80 -63 -58 -126 -37 -126 43 0 24
5 44 13 47 27 11 80 6 108 -10z"/>
<path d="M4820 6549 c-23 -16 -57 -37 -78 -47 -50 -23 -55 -29 -77 -88 -17
-49 -17 -54 -2 -87 10 -19 17 -39 17 -44 0 -5 15 -15 33 -24 17 -9 49 -24 69
-34 28 -13 50 -16 90 -12 102 12 169 26 184 37 20 18 17 40 -5 40 -28 0 -36
36 -16 66 21 32 14 64 -21 95 -14 13 -36 40 -49 60 -14 22 -38 41 -64 51 -40
16 -41 16 -81 -13z"/>
<path d="M5375 6529 c-17 -5 -46 -24 -64 -43 -30 -31 -34 -42 -39 -104 -5 -74
-8 -69 60 -121 48 -36 164 -51 219 -28 40 17 87 62 101 97 14 34 10 110 -7
136 -17 27 -94 54 -151 54 -24 0 -53 4 -66 8 -13 5 -37 5 -53 1z"/>
<path d="M11281 6373 c1 -86 4 -106 9 -73 4 25 8 50 10 55 2 6 0 18 -5 28 -4
10 -5 38 -2 62 2 25 1 45 -4 45 -5 0 -8 -53 -8 -117z"/>
<path d="M11433 6425 c0 -22 2 -30 4 -17 2 12 2 30 0 40 -3 9 -5 -1 -4 -23z"/>
<path d="M11334 6349 c-3 -6 -1 -16 5 -22 8 -8 11 -5 11 11 0 24 -5 28 -16 11z"/>
<path d="M5041 6070 c-29 -10 -69 -18 -87 -18 -21 0 -81 -24 -161 -63 -109
-53 -140 -74 -206 -138 -43 -42 -93 -100 -110 -131 -54 -94 -114 -243 -132
-330 -4 -19 -10 -39 -14 -45 -13 -21 -32 -179 -45 -390 -8 -121 -18 -250 -22
-288 -4 -38 -2 -112 5 -170 7 -56 16 -163 21 -237 24 -346 39 -441 85 -530 7
-14 38 -49 69 -77 40 -37 56 -60 56 -78 0 -17 7 -28 23 -34 29 -12 56 -38 112
-110 25 -34 50 -61 54 -61 4 0 16 -8 27 -18 11 -10 41 -27 66 -36 41 -16 59
-17 155 -7 59 6 123 13 142 17 38 8 50 -4 51 -51 1 -57 88 -88 142 -51 12 9
43 16 68 16 126 1 338 123 407 235 33 54 73 159 88 232 4 18 11 35 16 38 5 4
9 13 9 22 0 8 7 31 16 51 8 21 21 51 28 67 58 133 99 262 121 380 15 75 18
161 18 520 2 389 0 437 -17 500 -10 39 -25 84 -32 102 -8 17 -14 35 -14 40 0
6 -11 30 -25 54 -14 24 -28 51 -32 59 -4 8 -30 47 -58 85 -29 39 -63 92 -76
118 -49 101 -172 191 -336 246 -50 17 -87 21 -183 21 -98 0 -122 3 -126 15 -4
8 -1 22 6 29 9 12 7 17 -9 25 -26 14 -35 13 -100 -9z m309 -216 c19 -9 47 -29
61 -44 44 -45 70 -106 120 -275 4 -16 13 -59 19 -95 5 -36 14 -87 19 -115 12
-64 13 -200 1 -290 -5 -38 -14 -117 -20 -175 -5 -58 -14 -132 -19 -165 -6 -33
-15 -139 -21 -235 -14 -217 -25 -337 -39 -398 -6 -26 -18 -83 -26 -127 -9 -44
-21 -98 -26 -120 -17 -68 -39 -178 -47 -230 -10 -65 -41 -108 -105 -145 -73
-42 -107 -40 -155 10 -24 26 -55 45 -87 54 -53 16 -93 55 -126 120 -35 73 -18
86 44 35 38 -31 64 -34 33 -4 -9 9 -16 19 -16 23 0 4 -16 25 -36 47 -55 61
-74 116 -84 235 -5 58 -14 152 -19 210 -25 270 -34 492 -26 621 8 118 9 395 4
627 -2 74 10 151 29 189 5 10 20 41 33 68 28 61 123 158 181 186 38 17 58 19
158 16 83 -4 125 -10 150 -23z"/>
<path d="M8920 6042 c-63 -8 -160 -16 -215 -16 -89 -1 -105 -4 -146 -28 -24
-14 -67 -50 -94 -80 -54 -57 -77 -69 -112 -57 -30 11 -50 -8 -126 -123 -80
-120 -168 -297 -201 -403 -37 -120 -47 -166 -55 -270 -5 -60 -19 -189 -30
-285 -12 -104 -21 -238 -21 -331 0 -108 -4 -169 -14 -196 -11 -32 -12 -45 -1
-70 7 -16 16 -50 20 -74 4 -24 14 -69 22 -99 9 -30 19 -113 24 -183 9 -144 17
-173 97 -336 45 -91 70 -128 122 -181 63 -65 120 -100 161 -100 11 0 36 -7 57
-16 28 -13 79 -17 217 -19 99 -2 196 0 215 5 97 24 128 33 157 46 17 8 35 14
41 14 9 0 86 40 167 87 22 12 47 25 55 29 126 51 177 86 291 195 36 35 82 75
103 89 20 14 53 49 72 77 19 29 46 61 60 70 67 46 83 68 90 117 l7 49 -29 -7
c-15 -4 -46 -22 -68 -39 -23 -18 -48 -37 -56 -44 -82 -65 -113 -86 -160 -114
-30 -18 -76 -48 -102 -66 -26 -19 -104 -63 -172 -98 l-125 -64 -163 -3 c-183
-3 -190 -1 -256 70 -36 40 -88 138 -102 192 -5 19 -14 53 -19 75 -6 22 -11 55
-11 73 0 20 -12 48 -30 74 l-30 41 1 386 c0 212 4 406 9 431 4 25 13 71 19
104 6 32 14 63 19 70 5 6 12 33 16 60 3 27 10 54 15 60 5 6 12 27 16 46 4 19
11 41 15 50 11 21 38 118 46 160 11 63 51 170 99 263 8 16 15 34 15 41 0 16
26 51 79 102 37 36 42 44 28 50 -21 8 -22 30 -1 38 9 3 44 6 79 6 153 0 285
-102 285 -221 0 -41 21 -175 41 -259 6 -25 15 -70 19 -100 11 -72 32 -149 49
-180 16 -30 52 -70 62 -70 10 0 49 78 49 99 0 30 25 45 43 26 27 -27 52 -18
67 23 10 28 13 101 12 302 -1 245 -2 268 -21 306 -39 79 -127 133 -306 188
-44 13 -237 38 -269 35 -6 -1 -63 -8 -126 -17z m-765 -864 c3 -18 1 -76 -6
-128 -6 -52 -14 -139 -18 -192 -3 -53 -9 -100 -14 -104 -4 -4 -20 -3 -35 2
-27 9 -27 11 -30 104 -2 61 2 117 12 155 8 33 17 79 20 102 8 58 26 93 47 93
13 0 20 -10 24 -32z"/>
<path d="M10325 6042 c-16 -2 -38 -10 -49 -18 -11 -8 -33 -14 -48 -14 -25 0
-28 -4 -34 -50 -9 -67 -29 -82 -122 -95 -59 -8 -78 -15 -80 -28 -3 -12 3 -17
20 -17 13 0 36 -7 52 -15 15 -8 41 -15 57 -15 52 0 66 -29 75 -148 8 -131 -1
-677 -15 -862 -6 -74 -16 -200 -22 -280 -6 -80 -15 -287 -19 -460 -14 -553
-21 -683 -37 -702 -12 -13 -139 -49 -218 -60 -12 -2 -21 -12 -23 -26 -3 -18 4
-26 32 -37 58 -25 397 -16 594 15 63 10 77 9 97 -4 34 -22 52 -20 71 10 33 49
64 57 274 66 219 9 397 26 422 39 9 5 52 14 95 20 43 6 82 14 87 19 4 5 1 18
-8 31 -30 43 -16 69 35 69 46 0 29 46 -26 69 -27 12 -273 -4 -360 -23 -38 -8
-101 -20 -140 -26 -38 -6 -83 -15 -100 -20 -16 -5 -59 -12 -95 -16 -36 -4 -70
-10 -75 -15 -6 -4 -29 -11 -51 -15 -29 -4 -43 -2 -52 9 -20 24 29 57 87 58 84
1 93 18 9 18 -70 1 -78 3 -97 27 -36 46 -36 154 0 309 7 28 13 93 15 145 16
582 18 611 38 626 13 9 47 14 95 15 103 0 201 13 291 37 41 11 99 23 128 27
31 4 56 13 59 21 7 18 -14 43 -47 57 -24 9 -285 20 -451 18 -57 0 -80 3 -89
14 -10 12 -13 93 -11 339 1 198 -3 334 -9 351 -17 45 -23 186 -11 233 17 60
42 82 94 82 23 0 58 5 77 12 21 7 156 14 340 18 284 7 460 22 460 41 0 4 -10
18 -22 31 -59 61 -159 95 -233 78 -54 -12 -183 -24 -475 -44 -107 -8 -204 -17
-215 -21 -13 -4 -33 2 -55 17 -84 56 -234 99 -315 90z m-100 -2522 c3 -5 10
-37 16 -70 12 -74 -1 -100 -47 -100 -26 0 -33 5 -38 25 -18 72 39 193 69 145z"/>
<path d="M2671 5984 c-36 -13 -76 -24 -90 -26 -21 -2 -27 -10 -32 -41 -3 -21
-18 -50 -34 -67 -27 -28 -28 -32 -20 -92 4 -35 7 -72 6 -83 -2 -11 -5 -180 -7
-375 -6 -450 27 -1152 67 -1450 5 -41 14 -140 19 -220 11 -168 29 -277 50
-306 8 -11 37 -29 63 -39 46 -17 51 -17 102 -1 30 9 77 20 105 23 38 4 50 10
50 23 0 22 27 46 63 54 17 4 27 13 27 25 0 10 14 45 30 79 l31 60 -4 234 c-4
252 -21 548 -38 642 -6 33 -13 98 -16 145 -6 94 3 116 48 109 18 -2 26 -16 41
-68 32 -109 79 -253 94 -287 8 -17 14 -35 14 -41 0 -5 7 -23 15 -38 8 -16 15
-36 15 -44 0 -8 7 -24 15 -34 8 -11 15 -28 15 -38 0 -10 4 -26 10 -36 5 -9 26
-60 45 -112 20 -52 40 -104 46 -115 5 -11 20 -54 34 -95 29 -87 77 -223 93
-263 7 -16 12 -32 12 -37 0 -5 8 -23 17 -42 9 -18 23 -46 31 -63 16 -32 46
-65 59 -65 5 0 16 9 25 20 22 24 29 22 142 -55 l89 -60 100 3 c101 3 128 10
160 43 9 10 39 21 67 25 28 4 50 10 50 15 0 5 -13 32 -28 61 -16 29 -32 71
-36 93 -12 69 -52 161 -106 245 -16 24 -94 150 -105 168 -6 9 -27 43 -48 74
-21 32 -42 68 -47 80 -6 13 -20 39 -31 58 -22 35 -87 162 -130 253 -12 26 -25
47 -29 47 -7 0 -34 60 -45 100 -4 14 -34 81 -67 150 -33 69 -80 166 -104 216
-67 140 -58 212 35 275 52 35 64 49 85 99 11 25 26 52 33 61 7 8 13 23 13 32
0 8 6 22 13 29 7 7 49 60 92 118 83 111 193 248 233 290 46 48 149 185 156
206 4 13 -1 28 -15 43 -23 24 -15 26 -94 -25 -39 -25 -248 -234 -359 -359
-134 -151 -148 -166 -191 -220 -41 -52 -47 -59 -111 -136 -22 -26 -49 -60 -61
-75 -12 -16 -30 -38 -40 -49 -10 -11 -36 -43 -58 -70 -22 -28 -44 -55 -50 -61
-5 -6 -32 -37 -59 -68 -39 -46 -54 -56 -75 -54 -25 3 -26 7 -32 73 -4 39 -7
170 -8 292 -1 137 -5 232 -12 250 -6 15 -13 84 -15 153 -5 151 -30 303 -53
324 -19 17 -131 47 -169 45 -15 -1 -56 -12 -91 -25z"/>
<path d="M7671 5996 c-26 -31 -181 -342 -248 -496 -8 -19 -21 -48 -28 -65 -19
-41 -39 -90 -64 -155 -32 -79 -41 -101 -57 -133 -8 -16 -14 -33 -14 -39 0 -10
-16 -49 -45 -113 -8 -16 -18 -46 -23 -65 -6 -28 -14 -36 -35 -38 -15 -2 -27 2
-27 8 0 6 -16 44 -35 84 -19 40 -35 80 -35 89 0 9 -4 18 -9 22 -5 3 -12 20
-16 38 -8 36 -21 80 -65 212 -17 49 -30 99 -30 112 0 12 -4 24 -9 27 -5 4 -12
25 -16 49 -8 48 -25 83 -66 140 -16 22 -29 49 -29 59 0 28 -26 75 -46 82 -30
12 -41 -11 -21 -45 17 -30 23 -89 11 -102 -12 -11 -51 24 -98 87 -81 111 -154
166 -273 205 -34 12 -87 21 -118 21 -54 0 -56 -1 -70 -35 -17 -39 -11 -63 47
-179 15 -29 48 -137 48 -155 0 -9 4 -21 9 -27 5 -5 14 -29 19 -54 6 -25 18
-70 26 -100 8 -30 20 -75 26 -100 11 -43 22 -85 57 -207 9 -32 22 -75 29 -96
8 -20 14 -48 14 -60 0 -13 4 -27 9 -32 6 -6 14 -28 20 -50 42 -166 53 -194
108 -267 24 -31 43 -63 43 -70 0 -8 4 -18 9 -23 6 -6 15 -39 21 -75 7 -36 16
-90 22 -120 7 -36 7 -149 2 -325 -14 -457 -8 -649 22 -690 14 -19 15 -19 40
13 28 35 63 42 84 17 7 -8 20 -15 30 -15 9 0 48 -20 86 -45 38 -24 78 -45 89
-45 11 1 38 14 59 30 33 25 45 29 77 24 34 -6 39 -4 53 25 15 28 16 88 12 568
-3 296 -8 583 -11 638 -8 116 -2 141 61 270 24 50 44 94 44 98 0 5 6 23 14 40
8 18 24 61 35 97 12 36 26 76 32 90 6 14 17 39 23 55 7 17 20 46 29 65 59 128
74 174 86 253 6 39 25 99 45 143 20 41 36 80 36 87 0 7 6 24 14 38 24 46 56
148 56 177 0 17 -10 38 -23 51 -21 19 -26 20 -36 7z"/>
</g>
</svg>
