<svg xmlns="http://www.w3.org/2000/svg" width="28.882" height="22" viewBox="0 0 28.882 22">
  <g id="mail" transform="translate(0 -61)">
    <g id="Group_3" data-name="Group 3" transform="translate(0 61)">
      <path id="Path_24" data-name="Path 24" d="M26.343,61H2.538A2.543,2.543,0,0,0,0,63.538V80.461A2.543,2.543,0,0,0,2.538,83h23.8a2.543,2.543,0,0,0,2.538-2.538V63.538A2.543,2.543,0,0,0,26.343,61Zm-.351,1.692-11.5,11.5L2.9,62.692ZM1.692,80.111V63.881l8.15,8.08Zm1.2,1.2,8.155-8.155L13.9,75.985a.846.846,0,0,0,1.194,0L17.882,73.2l8.111,8.111Zm24.3-1.2L19.078,72l8.111-8.111Z" transform="translate(0 -61)" fill="#94a470"/>
    </g>
  </g>
</svg>
