<svg xmlns="http://www.w3.org/2000/svg" width="24.99" height="21.981" viewBox="0 0 24.99 21.981">
  <g id="menu_primary" transform="translate(0 -30.821)" opacity="1">
    <path id="Path_1" data-name="Path 1" d="M243.816,123.8a.625.625,0,1,0-.625-.625A.625.625,0,0,0,243.816,123.8Z" transform="translate(-231.321 -87.252)" fill="#738844"/>
    <path id="Path_2" data-name="Path 2" d="M83.472,123.8a.625.625,0,1,0-.625-.625A.625.625,0,0,0,83.472,123.8Z" transform="translate(-78.803 -87.252)" fill="#738844"/>
    <path id="Path_3" data-name="Path 3" d="M404.16,122.552a.625.625,0,1,0,.625.625A.625.625,0,0,0,404.16,122.552Z" transform="translate(-383.839 -87.253)" fill="#738844"/>
    <path id="Path_4" data-name="Path 4" d="M243.816,378.529a.625.625,0,1,0,.625.625A.625.625,0,0,0,243.816,378.529Z" transform="translate(-231.321 -330.737)" fill="#738844"/>
    <path id="Path_5" data-name="Path 5" d="M83.472,379.779a.625.625,0,1,0-.625-.625A.625.625,0,0,0,83.472,379.779Z" transform="translate(-78.803 -330.737)" fill="#738844"/>
    <path id="Path_6" data-name="Path 6" d="M404.16,378.529a.625.625,0,1,0,.625.625A.625.625,0,0,0,404.16,378.529Z" transform="translate(-383.839 -330.737)" fill="#738844"/>
    <path id="Path_7" data-name="Path 7" d="M114.469,237.281v-.971a.366.366,0,0,0-.732,0v.971a.366.366,0,1,0,.732,0Z" transform="translate(-108.186 -195.111)" fill="#738844"/>
    <path id="Path_8" data-name="Path 8" d="M383.263,236.31v.971a.366.366,0,1,0,.732,0v-.971a.366.366,0,0,0-.732,0Z" transform="translate(-364.557 -195.111)" fill="#738844"/>
    <path id="Path_9" data-name="Path 9" d="M229.1,256.2a.366.366,0,0,0-.517.036,1.068,1.068,0,0,1-1.612,0,.366.366,0,1,0-.552.481,1.8,1.8,0,0,0,2.716,0A.366.366,0,0,0,229.1,256.2Z" transform="translate(-215.281 -214.295)" fill="#738844"/>
    <path id="Path_10" data-name="Path 10" d="M7.071,51.283a.789.789,0,0,1-.788.788H3.055a.789.789,0,0,1-.788-.788V41.253a.366.366,0,0,0-.732,0v4.832A1.58,1.58,0,0,0,0,47.662v1.511A1.58,1.58,0,0,0,1.534,50.75v.532a1.522,1.522,0,0,0,1.52,1.52H6.283a1.522,1.522,0,0,0,1.52-1.52v-.531H9.361v.531a1.522,1.522,0,0,0,1.52,1.52h3.229a1.522,1.522,0,0,0,1.52-1.52v-.531h1.558v.531a1.522,1.522,0,0,0,1.52,1.52h3.229a1.522,1.522,0,0,0,1.52-1.52V50.75a1.58,1.58,0,0,0,1.535-1.577V47.662a1.58,1.58,0,0,0-1.535-1.577V44.758a.366.366,0,0,0-.732,0v6.525a.789.789,0,0,1-.788.788H18.707a.789.789,0,0,1-.788-.788V33.956a.872.872,0,0,1,.257-.621L19.7,31.811a.878.878,0,0,1,1.242,0l1.524,1.524a.873.873,0,0,1,.257.621v9.338a.366.366,0,1,0,.732,0V38.257a1.58,1.58,0,0,0,1.535-1.577V35.168a1.58,1.58,0,0,0-1.577-1.578,1.6,1.6,0,0,0-.43-.773L21.46,31.293a1.609,1.609,0,0,0-2.277,0l-1.524,1.524a1.6,1.6,0,0,0-.43.773H15.587a1.6,1.6,0,0,0-.43-.773l-1.524-1.524a1.61,1.61,0,0,0-2.277,0L9.832,32.817a1.6,1.6,0,0,0-.43.773H7.761a1.6,1.6,0,0,0-.43-.773L5.808,31.293a1.609,1.609,0,0,0-2.277,0L2.006,32.817a1.6,1.6,0,0,0-.43.773A1.58,1.58,0,0,0,0,35.168v1.511a1.58,1.58,0,0,0,1.535,1.577v1.533a.366.366,0,0,0,.732,0V33.956a.872.872,0,0,1,.257-.621l1.524-1.524a.878.878,0,0,1,1.242,0l1.524,1.524a.873.873,0,0,1,.257.621ZM.732,36.679V35.168a.847.847,0,0,1,.8-.845v3.2A.847.847,0,0,1,.732,36.679Zm0,12.494V47.662a.847.847,0,0,1,.8-.845v3.2A.847.847,0,0,1,.732,49.173Zm23.526-1.511v1.511a.847.847,0,0,1-.8.845v-3.2A.847.847,0,0,1,24.258,47.662Zm-8.629-9.4h1.558v7.826H15.629Zm1.558-.732H15.629v-3.2h1.558ZM7.8,38.258H9.361v7.826H7.8Zm1.558-.732H7.8v-3.2H9.361ZM7.8,50.019v-3.2H9.361v3.2ZM14.9,51.283a.789.789,0,0,1-.788.788H10.881a.789.789,0,0,1-.788-.788V33.956a.873.873,0,0,1,.257-.621l1.524-1.524a.878.878,0,0,1,1.242,0l1.524,1.524a.873.873,0,0,1,.257.621V51.283Zm.732-1.263v-3.2h1.558v3.2Zm8.629-13.34a.847.847,0,0,1-.8.845v-3.2a.847.847,0,0,1,.8.845Z" transform="translate(0 0)" fill="#738844"/>
  </g>
</svg>
